<svg width="282" height="182" viewBox="0 0 282 182" fill="none" xmlns="http://www.w3.org/2000/svg">
<path d="M36.0425 109.317C32.2486 109.407 28.6353 108.91 24.9768 107.554L17.7503 104.886C11.6077 102.626 5.0586 104.299 0 108.684C2.16797 98.6927 11.9238 94.0362 21.6345 95.3472L31.0742 96.6583C38.9783 97.7433 46.25 94.1266 50.8118 87.6164C55.0574 81.6035 56.7737 75.4098 63.1873 70.708C57.9029 72.2903 53.9734 75.7714 50.7215 79.8403C47.4695 83.9092 43.9917 87.4355 39.2945 89.7864C32.4744 93.2224 24.7058 93.6745 17.7954 90.555C14.4983 89.1083 11.6077 87.0739 9.62037 83.9092C24.7962 90.1029 37.8491 83.9996 48.2373 72.6068C50.6311 69.9846 52.8443 67.4076 55.5994 65.102C67.7039 54.8394 82.2474 55.834 96.294 61.9373C97.8296 62.6154 100.043 63.4292 101.669 62.4798C112.644 56.1504 122.039 56.4669 134.143 59.0439L150.493 62.4798C155.371 63.5196 160.339 63.5648 165.263 62.7963L170.637 61.2139C167.205 61.1235 163.908 60.7618 160.972 58.863C158.578 57.3259 156.094 56.4217 153.068 55.6079C155.236 54.4777 157.81 54.1612 160.339 54.3421C166.437 54.7489 171.902 52.8953 176.599 49.0525C179.309 46.792 182.29 45.3001 185.497 43.9438L178.27 45.4357C174.702 46.1591 171.134 46.0687 167.882 44.5315C165.172 43.2205 162.869 41.3217 162.056 38.2926C169.102 40.1462 175.606 38.6543 181.522 35.0375C186.265 32.1441 191.369 30.833 196.834 31.0138C198.685 31.1043 200.447 29.8836 200.763 27.9848C197.827 26.0408 194.259 25.5887 190.827 26.312C185.497 27.4423 182.064 31.0591 177.232 29.7932C180.393 28.5725 182.832 26.4929 184.955 23.8255C188.433 19.5306 193.356 17.1797 198.821 16.9084L205.325 17.1345C211.332 17.3605 217.474 19.395 223.753 14.5123C219.507 15.0096 215.623 15.0096 212.28 12.4327C217.203 12.6135 221.268 11.3024 225.153 8.77068C232.695 3.88803 239.516 4.74702 247.645 8.04733C248.278 8.31858 249.768 8.18295 250.446 8.09253C252.93 4.24971 257.537 1.08503 262.144 0L260.337 8.31858C259.976 9.90092 259.163 11.4833 258.485 12.93C259.208 14.9192 260.698 16.6372 262.234 18.2647L266.66 22.9665C267.518 23.8707 268.151 25.001 268.512 26.2216C269.822 30.4713 271.222 34.495 273.48 38.383L281.339 51.9007C281.836 52.7597 282.197 54.0256 281.881 54.975C280.978 57.6424 279.894 60.2645 277.861 62.1633C276.145 63.7457 273.48 63.5648 271.358 63.1579C269.144 62.7511 267.654 61.0783 267.518 58.8178C267.338 56.3765 266.299 54.0708 264.492 52.398C258.169 46.7016 252.162 48.1935 247.149 44.848C244.755 43.2657 243.084 40.5531 243.49 37.6597C244.348 31.6016 251.123 31.1043 254.872 26.1312C257.175 23.0569 256.995 18.6716 253.833 16.4111C247.645 11.9806 235.722 15.8686 228.721 19.4402C218.513 24.6393 210.835 33.41 207.041 44.2151C205.505 48.51 202.841 53.031 198.234 52.4432C191.323 51.5843 184.955 53.7543 179.942 58.863C180.664 58.863 181.296 58.863 181.974 58.9534C183.464 59.0891 184.277 60.807 183.374 62.0277C179.58 67.3624 173.573 70.3011 166.979 70.5723C162.146 70.7532 157.584 69.8038 152.977 68.357C142.002 64.8759 131.614 62.0729 121.451 69.2612C117.929 71.7478 114.225 73.3753 109.979 74.1891C104.334 75.2741 99.8169 78.7101 97.4231 83.9544C95.0293 89.1987 95.8875 94.3978 93.2227 98.6023C92.6807 99.4613 91.5064 100.23 90.6482 100.275C90.4676 100.275 90.2418 100.275 90.0159 100.23C88.7061 99.9586 87.7576 98.7832 87.5769 97.4269C85.0928 78.3032 97.4683 68.0406 97.4683 68.0406C89.8804 66.9103 82.428 69.849 77.4146 75.6358C70.459 83.6831 70.2784 92.0469 66.6199 99.5065C64.8584 103.123 62.555 106.469 58.7159 108.368C60.7935 104.344 62.1033 100.275 60.7483 95.935C57.2254 104.073 52.4378 111.125 44.3982 114.561C37.4878 117.545 29.8096 116.957 23.4412 112.617C23.2153 112.617 23.6218 112.21 23.7573 112.165C28.2739 112.753 32.655 112.301 36.2683 109.046L36.0425 109.317Z" fill="#122443"/>
<path d="M153.384 160.54C155.145 162.891 157.449 167.638 158.126 171.209C158.442 172.837 156.997 174.283 155.371 173.877C155.145 173.831 154.919 173.741 154.693 173.651C150.087 171.842 145.66 169.536 142.002 166.191C140.827 165.151 141.55 162.71 142.318 161.715C143.312 160.359 143.944 159.274 143.537 157.737C142.589 154.12 137.711 154.346 134.911 152.221C127.639 146.615 120.141 141.868 111.695 138.297L107.947 136.172C105.101 134.182 104.288 130.656 105.733 127.537C107.54 123.649 110.882 121.072 114.857 119.625C118.109 118.404 121.18 117.003 123.755 114.742C128.452 110.719 130.665 104.525 129.265 98.4668C127.955 92.8608 124.297 89.1988 124.297 83.8189C124.297 76.947 130.394 72.6521 136.988 72.6973C143.583 72.7425 150.312 74.9126 155.913 78.7102C156.952 79.4336 157.855 80.3378 158.442 81.3776C159.526 83.186 158.939 85.5821 157.087 86.6219C155.371 87.6165 153.067 88.0234 150.719 88.5207C144.215 89.8318 140.24 96.1159 141.324 102.671C142.047 107.011 140.376 111.804 137.756 115.647C135.362 119.037 132.246 121.614 129.084 124.327L124.568 128.124C122.219 130.701 122.219 134.228 124.703 136.669C126.194 138.161 128.091 139.382 130.078 140.241L140.511 144.671C143.357 145.892 145.48 147.791 146.744 150.548C148.461 154.21 150.809 157.239 153.293 160.585L153.384 160.54Z" fill="#3478B3"/>
<path d="M199.86 136.081L199.318 130.882C198.324 127.22 198.73 123.649 199.543 119.987C199.543 119.67 199.679 118.992 199.453 118.811C198.866 118.269 196.517 117.862 193.491 115.918C190.872 114.245 188.116 113.431 185 113.522C177.006 113.748 167.611 111.578 163.501 104.661C161.288 100.908 161.965 96.568 165.443 93.8555C171.179 89.3345 179.399 90.8264 188.794 84.7683C194.846 80.8351 198.685 74.9126 199.318 67.6791C199.408 66.7297 199.724 65.5994 200.04 64.6952C200.627 63.0225 202.389 61.9374 204.15 62.3443C205.912 62.7512 206.951 64.0171 208.08 65.2377C209.932 67.227 211.783 69.0353 213.093 71.3862C215.442 75.5455 215.126 80.4282 211.964 84.0902C208.577 88.0234 204.06 88.7468 200.311 92.5444C198.324 94.5788 197.059 97.2914 197.375 100.185C197.646 102.762 199.363 104.841 201.35 106.424C204.512 108.91 206.228 112.391 205.28 116.46L203.97 120.665C202.705 124.734 202.344 128.577 202.976 132.736C203.202 134.137 202.524 135.539 201.576 136.624C200.989 137.302 199.905 136.895 199.814 136.036L199.86 136.081Z" fill="#C4E2FC"/>
<path d="M51.5794 181.381C49.9534 181.743 48.5081 180.296 48.8694 178.669C49.9534 173.876 51.6246 169.446 53.7925 165.151C54.5604 163.659 56.7735 163.614 58.0382 164.337L61.1094 166.055C61.3804 166.236 62.2838 166.055 62.5096 165.919C63.5032 165.332 61.2901 160.585 63.9097 156.651C67.523 151.271 69.8265 145.259 70.1427 138.703L70.5491 129.932C70.7298 126.044 72.9429 122.699 76.5562 121.252L83.3763 118.494C89.6544 115.963 94.6226 111.532 97.6036 105.474L100.449 99.642C101.714 97.065 103.475 94.8498 105.779 93.177C110.115 90.1028 115.67 91.1426 118.651 95.6183C121.316 99.6872 120.819 104.932 117.567 108.729C111.831 115.511 103.566 113.476 91.6868 126.813C88.2542 130.656 81.4793 132.509 77.4595 144.219C75.8336 149.056 74.6593 153.984 73.8011 159.048C73.1688 162.664 71.588 165.693 68.607 167.863C65.897 169.853 64.2259 172.52 62.1483 175.097C60.2513 177.448 55.554 180.432 51.4891 181.291L51.5794 181.381Z" fill="#C4E2FC"/>
<path d="M272.848 160.404C268.512 157.963 264.853 154.979 261.466 151.453C260.517 150.458 260.472 148.966 261.014 147.7C261.601 146.389 262.956 145.666 263.814 144.626C265.621 142.501 264.04 139.246 261.646 138.251C258.259 136.85 255.865 134.77 253.697 131.877L244.529 119.625C242.722 117.229 239.425 116.415 236.534 116.46L223.436 116.641C219.778 116.686 216.255 116.46 212.732 115.014C214.267 111.397 214.041 107.825 212.687 104.344C209.977 97.5174 213.003 92.7704 218.287 88.1138C224.159 82.9599 221.946 77.5799 227.049 76.2236C230.482 84.0901 230.437 93.0416 224.972 99.4162C224.068 100.501 223.075 101.315 222.939 102.717L227.14 103.892L230.166 105.203C235.179 107.373 240.373 108.729 245.658 110.131C249.361 111.126 252.252 113.07 254.42 116.279L266.344 133.73C269.822 138.839 273.751 139.472 274.383 144.083L276.145 157.737C276.145 157.737 276.145 158.053 276.145 158.189C276.145 159.907 274.338 161.082 272.848 160.268V160.404Z" fill="#122443"/>
<path d="M229.037 67.905C227.231 73.8727 223.482 76.9017 222.624 74.0535C220.772 67.7242 216.797 65.328 214.042 60.581C212.01 57.0547 211.197 53.1214 212.01 49.0073C215.578 30.3357 235.677 21.3842 239.019 26.6286C240.509 28.9795 237.393 32.2798 234.954 34.7663C229.534 40.2367 227.502 47.6058 229.173 55.1559C230.121 59.4508 230.347 63.7457 229.037 67.905Z" fill="#3478B3"/>
<path d="M173.122 179.392C171.496 179.935 169.87 178.624 170.141 176.951C170.863 172.114 173.528 166.282 175.696 162.484C176.419 161.173 178.316 160.495 179.716 161.128L183.329 162.71C183.781 162.891 184.774 162.71 185.136 162.439C186.265 161.67 184.097 155.431 188.93 152.086L195.479 147.52C198.595 145.35 205.099 142.637 206.861 139.201C208.442 136.172 205.461 133.052 206.635 129.843L208.893 123.694C209.209 122.79 210.113 122.202 211.016 122.067C211.332 122.021 211.648 122.202 211.739 122.519L215.262 132.103C216.978 136.714 215.758 141.326 211.648 144.219C208.171 146.661 204.648 149.011 201.486 151.995C196.608 156.562 192.408 161.444 188.388 166.779L186.4 170.757C185.904 171.752 185.091 172.837 184.142 173.425L175.019 178.624C174.386 178.986 173.799 179.257 173.167 179.438L173.122 179.392Z" fill="#3478B3"/>
</svg>
