<svg width="777" height="148" viewBox="0 0 777 148" fill="none" xmlns="http://www.w3.org/2000/svg"><g transform="translate(0,8.0) scale(0.8919)"><path d="M86.3405 109.259C96.0894 109.259 103.992 101.371 103.992 91.6414C103.992 81.9113 96.0894 74.0234 86.3405 74.0234C76.5916 74.0234 68.6885 81.9113 68.6885 91.6414C68.6885 101.371 76.5916 109.259 86.3405 109.259Z" fill="#BDE3FF"/><path d="M129.417 7.99072C94.2065 -5.56154 54.033 -2.94455 25.8928 24.0198C0.234126 48.6008 -8.0066 87.3415 8.70896 119.259C11.8461 125.194 15.6855 130.896 20.2741 136.176C12.4079 122.905 7.86616 107.483 7.86616 90.9866C7.86616 48.04 38.4411 12.1031 78.9893 3.69138C92.5677 1.58844 109.283 2.14923 129.417 7.99072Z" fill="#BDE3FF"/><path d="M160.366 18.3655H141.497C141.497 18.3655 141.357 18.272 141.076 18.1318C126.889 10.4678 110.267 6.68248 92.7082 8.27137C52.3006 11.9165 19.7591 44.3484 15.9665 84.6781C14.0936 104.633 19.1972 123.325 29.1235 138.7C29.1235 138.7 90.2266 138.56 98.3269 138.56H102.915C103.571 138.56 104.227 138.28 104.648 137.766L110.407 131.27C110.407 131.27 106.287 126.55 96.6881 115.054C91.4908 117.344 85.4508 117.998 79.3639 116.269C67.8924 112.998 60.0262 101.829 60.9159 89.9588C61.7587 78.7431 69.5312 70.051 79.4575 67.2471C80.3003 67.0134 81.1899 66.8265 82.0327 66.6395C82.0327 66.6395 82.1264 66.6395 82.1732 66.6395C82.9692 66.4993 83.812 66.4059 84.6548 66.3591C84.7484 66.3591 84.8421 66.3591 84.9825 66.3591C86.8086 66.2657 88.6815 66.3591 90.5544 66.6395C104.461 68.9294 113.919 82.0143 111.624 95.9405C111.484 96.8751 111.25 97.763 111.016 98.6042C111.016 98.6509 111.016 98.7444 110.969 98.7911C109.939 102.343 108.206 105.521 105.959 108.184C105.491 108.792 105.163 109.119 105.163 109.119L115.37 121.129C115.37 121.129 115.651 121.55 115.838 121.736L116.166 122.11C117.758 123.839 119.912 124.868 122.206 124.868H132.648C134.708 124.868 136.674 124.073 138.22 122.624L146.694 114.633C148.474 112.951 149.457 110.568 149.457 108.044V46.9654C149.457 46.9654 149.457 46.9187 149.457 46.8719C149.457 42.7595 148.708 38.6938 147.443 34.7216L160.882 19.3001C161.209 18.9262 160.928 18.4122 160.46 18.4122L160.366 18.3655Z" fill="#FFFFFF"/><path d="M142.2 16.5889H151.236L153.905 10.6539C154.092 10.2334 153.718 9.76604 153.25 9.90624L138.22 14.4392L140.889 16.215C141.263 16.4487 141.731 16.5889 142.2 16.5889Z" fill="#FFFFFF"/></g><g transform="translate(178.5,11.0)"><path d="M0 94.1256V2.08008H62.4069V27.3485H33.5569V35.9029H59.7625V60.0659H33.5569V68.9098H63.2266V94.1783H0V94.1256Z" fill="#BDE3FF"/><path d="M148.295 90.9664C140.256 95.2567 133.725 96.2043 125.686 96.2043C112.385 96.2043 98.9251 93.8617 87.8188 82.9647C80.0444 75.3842 73.8037 63.5133 73.8037 48.0364C73.8037 32.5594 79.6213 22.0836 87.6602 14.2135C96.2543 5.79068 108.313 0 125.104 0C144.937 0 156.995 8.00167 163.527 14.7662C171.989 23.6102 176.273 35.6127 176.273 48.2996C176.273 64.5924 169.9 73.1469 167.546 76.1738L181.138 91.2296L162.39 106.601L148.269 90.9664H148.295ZM141.499 53.1427C143.43 46.3781 141.922 39.1924 137.057 34.3756C133.593 30.9275 129.705 29.5325 124.998 29.5325C120.292 29.5325 116.272 30.9275 112.808 34.6388C109.476 38.2185 107.678 43.3248 107.678 47.8784C107.678 52.8531 109.344 58.5122 113.231 62.0919C117.118 65.8295 123.227 67.6194 129.044 66.0928L130.525 65.4874C135.946 63.3027 140.018 58.7228 141.526 53.1164L141.499 53.1427Z" fill="#BDE3FF"/><path d="M187.882 2.08008H221.174V55.486C221.174 58.2497 221.465 62.1189 224.083 64.8827C225.881 66.8304 228.103 67.3569 230.747 67.3569C234.211 67.3569 236.3 66.383 237.543 65.1459C240.029 62.6717 240.029 57.8286 240.029 55.486V2.08008H273.453V58.5392C273.453 65.7249 272.078 76.2008 263.748 84.7552C254.308 94.4152 241.007 96.205 230.747 96.205C222.285 96.205 206.895 95.3627 196.344 84.0709C189.125 76.3324 187.882 67.6464 187.882 60.8818V2.08008Z" fill="#BDE3FF"/><path d="M286.463 94.1256V2.08008H320.02V94.1519H286.463V94.1256Z" fill="#BDE3FF"/><path d="M353.657 96.6779C348.157 96.6779 343.714 95.5987 340.303 93.414C336.892 91.2557 335.199 88.1498 335.199 84.1753C335.199 82.0959 335.94 80.2534 337.42 78.7004C338.901 77.1475 340.832 76.3578 343.185 76.3578C347.548 76.3578 350.246 79.0163 351.303 84.3069L352.097 87.9655C352.52 89.7817 353.075 91.2557 353.736 92.3875C354.397 93.5193 355.667 94.0721 357.597 94.0721C359.765 94.0721 361.696 93.1508 363.362 91.3346C365.028 89.5185 365.847 86.9916 365.847 83.7804C365.847 81.3589 365.08 78.99 363.547 76.7527C362.013 74.489 359.474 72.0148 355.878 69.33C352.308 66.54 349.426 63.671 347.231 60.6703C345.063 57.6697 343.952 54.09 343.952 49.9049C343.952 46.2463 344.878 42.9298 346.755 39.9292C348.633 36.9285 351.356 34.5333 354.926 32.7698C358.496 31.0063 362.727 30.1113 367.619 30.1113C373.278 30.1113 377.773 31.2431 381.026 33.5068C384.305 35.7704 385.944 38.6657 385.944 42.2454C385.944 44.1669 385.363 45.7462 384.252 47.0096C383.115 48.273 381.423 48.9047 379.148 48.9047C374.97 48.9047 372.114 46.3779 370.634 41.3505L369.338 37.6919C368.888 35.9547 368.386 34.7439 367.778 34.0332C367.17 33.3488 366.218 32.9803 364.895 32.9803C363.494 32.9803 362.066 33.7437 360.585 35.2703C359.104 36.7969 358.364 39.1922 358.364 42.5087C358.364 45.6409 359.289 48.4836 361.167 51.0368C363.044 53.5899 365.847 56.2747 369.602 59.0384C373.437 61.9074 376.266 64.6975 378.038 67.3823C379.836 70.067 380.709 73.3309 380.709 77.1475C380.709 80.7008 379.651 83.9647 377.562 86.9127C375.473 89.8607 372.405 92.2296 368.412 94.0194C364.393 95.8093 359.474 96.7042 353.63 96.7042L353.657 96.6779Z" fill="#FFFFFF"/><path d="M400.145 96.6775C397.447 96.6775 395.2 95.9668 393.402 94.5191C391.603 93.0715 390.731 90.9921 390.731 88.202C390.731 86.4648 390.916 84.5697 391.26 82.543C391.603 80.5162 392 78.3052 392.45 75.9626L401.493 34.7961H390.625L391.022 33.2432L395.729 32.7168C398.161 32.4535 400.303 31.8482 402.154 30.9006C403.979 29.953 405.724 28.5843 407.39 26.8471L419.951 14.2129H421.908L418.232 32.0587H432.512L431.851 34.7961H417.571L408.527 78.1736C408.184 79.8319 407.919 81.2269 407.734 82.4113C407.549 83.5958 407.47 84.5697 407.47 85.333C407.47 86.2016 407.734 86.886 408.263 87.4124C408.792 87.9388 409.347 88.202 409.955 88.202C411.172 88.202 412.494 87.7019 413.869 86.7017C415.27 85.7015 417.016 84.2012 419.105 82.2008L420.665 83.5168C418.497 86.728 415.641 89.7287 412.15 92.5187C408.66 95.2825 404.64 96.6775 400.118 96.6775H400.145Z" fill="#FFFFFF"/><path d="M441.925 96.6771C439.492 96.6771 437.165 96.0981 434.997 94.9926C432.828 93.8871 431.057 91.9919 429.708 89.3861C428.359 86.7803 427.672 83.3586 427.672 79.0945C427.672 74.4883 428.597 69.8557 430.422 65.2232C432.247 60.5643 434.706 56.1423 437.747 51.9309C440.788 47.7195 444.199 43.9819 447.954 40.7181C451.709 37.4542 455.596 34.8747 459.616 32.9796C463.635 31.0582 467.417 30.1106 471.013 30.1106C472.758 30.1106 474.398 30.4265 475.931 31.0845C477.465 31.7425 478.92 32.6374 480.321 33.7429L490.925 29.6895L491.983 30.3475L480.586 80.2526C479.977 82.7005 479.66 84.6746 479.66 86.2539C479.66 88.0701 480.48 88.9913 482.146 88.9913C483.362 88.9913 484.79 88.4122 486.403 87.3067C488.016 86.1749 489.867 84.6483 491.956 82.7532L493.014 83.806C491.692 85.8854 490.079 87.9121 488.095 89.8599C486.139 91.8077 483.944 93.4396 481.564 94.7557C479.158 96.0717 476.619 96.7035 473.895 96.7035C470.934 96.7035 468.527 95.8085 466.703 94.0187C464.878 92.2552 463.952 89.4914 463.952 85.7538C463.952 84.543 464.005 83.3586 464.085 82.2267C460.594 86.1223 456.892 89.5177 453.031 92.3868C449.171 95.2558 445.468 96.6771 441.978 96.6771H441.925ZM443.115 73.2249C443.115 77.8311 443.882 81.1476 445.416 83.2006C446.949 85.2537 448.959 86.2539 451.498 86.2539C453.587 86.2539 455.676 85.5959 457.791 84.3061C459.907 83.0164 462.154 81.1476 464.587 78.6997C464.772 77.6468 464.984 76.5677 465.248 75.4359L473.499 37.9017C472.362 36.5067 471.013 35.5591 469.426 35.0327C467.866 34.5063 466.465 34.243 465.248 34.243C461.493 34.243 457.58 36.454 453.454 40.876C450.228 44.4294 447.69 49.1409 445.865 54.9579C444.04 60.7749 443.115 66.8551 443.115 73.1985V73.2249Z" fill="#FFFFFF"/><path d="M483.018 126.001C479.342 126.001 476.037 125.185 473.075 123.526C470.114 121.868 468.633 119.526 468.633 116.499C468.633 114.235 469.373 112.498 470.854 111.287C472.335 110.076 474.08 109.471 476.09 109.471C478.1 109.471 479.951 109.997 481.643 111.024C483.335 112.05 484.843 113.893 486.165 116.499L487.487 119.763C488.016 120.71 488.624 121.263 489.312 121.394C489.999 121.526 490.66 121.079 491.269 120.026C491.692 119.236 492.088 118.341 492.432 117.341C492.776 116.341 493.225 115.104 493.754 113.63C494.971 110.682 496.055 107.102 496.954 102.891C497.879 98.6792 498.726 94.0203 499.492 88.8877C500.894 80.3859 502.243 71.6472 503.565 62.698C504.887 53.7488 506.236 44.3257 507.637 34.4289H497.033L497.298 33.2445L502.401 32.7181C504.49 32.4548 506.077 31.7705 507.108 30.6387C508.14 29.5069 508.986 27.8486 509.594 25.6903C511.947 18.1361 515.755 12.3191 520.991 8.21294C526.227 4.13314 532.679 2.08008 540.374 2.08008C544.737 2.08008 548.281 3.00132 550.978 4.87013C553.675 6.73895 555.05 9.10786 555.05 11.9769C555.05 14.3195 554.31 16.1883 552.829 17.5833C551.348 18.9783 549.55 19.6627 547.461 19.6627C543.362 19.6627 539.951 16.9253 537.254 11.4505L536.725 9.37107C535.932 7.55491 535.033 6.65998 534.028 6.71262C533.023 6.76527 532.177 7.4233 531.489 8.73936C530.008 10.8187 528.66 13.7404 527.417 17.478C526.2 21.2157 525.09 26.0851 524.138 32.06H557.615L555.817 34.7974L523.741 34.6658C522.34 43.8783 520.965 53.1171 519.616 62.3558C518.267 71.6209 516.813 80.4912 515.226 89.0193C514.01 95.4417 512.423 101.022 510.44 105.76C508.457 110.497 505.839 114.498 502.533 117.815C499.836 120.5 496.795 122.553 493.437 123.948C490.079 125.343 486.614 126.027 483.018 126.027V126.001Z" fill="#FFFFFF"/><path d="M526.994 126.001C523.318 126.001 520.013 125.185 517.051 123.526C514.089 121.868 512.608 119.526 512.608 116.499C512.608 114.235 513.349 112.498 514.83 111.287C516.31 110.076 518.056 109.471 520.065 109.471C522.075 109.471 523.926 109.997 525.645 111.024C527.364 112.05 528.845 113.893 530.167 116.499L531.489 119.763C532.018 120.71 532.626 121.263 533.314 121.394C534.001 121.526 534.662 121.079 535.271 120.026C535.694 119.236 536.09 118.341 536.434 117.341C536.778 116.341 537.227 115.104 537.756 113.63C538.973 110.682 540.057 107.102 540.956 102.891C541.881 98.6792 542.728 94.0203 543.494 88.8877C544.896 80.3859 546.245 71.6472 547.567 62.698C548.889 53.7488 550.238 44.3257 551.639 34.4289H541.035L541.3 33.2445L546.403 32.7181C548.492 32.4548 550.079 31.7705 551.11 30.6387C552.142 29.5069 552.988 27.8486 553.596 25.6903C555.949 18.1361 559.757 12.3191 564.993 8.21294C570.229 4.13314 576.681 2.08008 584.376 2.08008C588.739 2.08008 592.283 3.00132 594.98 4.87013C597.677 6.73895 599.052 9.10786 599.052 11.9769C599.052 14.3195 598.312 16.1883 596.831 17.5833C595.35 18.9783 593.552 19.6627 591.463 19.6627C587.364 19.6627 583.953 16.9253 581.256 11.4505L580.727 9.37107C579.934 7.55491 579.035 6.65998 578.03 6.71262C577.025 6.76527 576.179 7.4233 575.491 8.73936C574.01 10.8187 572.662 13.7404 571.419 17.478C570.202 21.2157 569.092 26.0851 568.14 32.06H584.112L583.451 34.7974L567.743 34.6658C566.342 43.8783 564.967 53.1171 563.618 62.3558C562.269 71.6209 560.815 80.4912 559.228 89.0193C558.012 95.4417 556.425 101.022 554.442 105.76C552.459 110.497 549.841 114.498 546.535 117.815C543.838 120.5 540.797 122.553 537.439 123.948C534.081 125.343 530.616 126.027 527.02 126.027L526.994 126.001Z" fill="#FFFFFF"/></g></svg>